<svg width="62" height="34" fill="none" xmlns="http://www.w3.org/2000/svg"><g clip-path="url(#a)"><path d="M655.804 0c-15.652 0-15.652 14-31.195 14-15.544 0-15.652-14-31.196-14-15.543 0-15.652 14-31.196 14-15.652 0-15.652-14-31.304-14s-15.652 14-31.196 14c-15.652 0-15.652-14-31.195-14-15.652 0-15.652 14-31.196 14-15.543 0-15.978-14-31.522-14-15.652 0-15.652 14-31.195 14-15.544 0-15.761-14-31.305-14-15.652 0-15.652 14-31.195 14-15.653 0-15.653-14-31.305-14s-15.652 14-31.195 14c-15.653 0-15.652-14-31.196-14C202.87 0 202.652 14 187 14c-15.652 0-15.652-14-31.196-14-15.652 0-15.652 14-31.195 14-15.653 0-15.653-14-31.305-14S77.652 14 62.11 14C46.456 14 46.456 0 30.913 0 15.261 0 15.261 14-.283 14-15.935 14-15.935 0-31.478 0-47.13 0-47.13 14-62.783 14S-78.435 0-94.087 0s-15.652 14-31.304 14-15.652-14-31.305-14C-172.348 0-172.348 14-188 14s-15.652-14-31.304-14c-15.653 0-15.653 14-31.305 14s-15.652-14-31.304-14-15.652 14-31.196 14c-15.652 0-15.652-14-31.304-14s-15.652 14-31.304 14c-15.653 0-15.653-14-31.305-14s-15.652 14-31.304 14-15.652-14-31.304-14c-15.218 0-15.218 14-30.87 14-15.652 0-15.652-14-31.196-14-15.543 0-15.652 14-31.304 14v20H687V14c-15.652 0-15.652-14-31.196-14Z" fill="#fff"/></g><defs><clipPath id="a"><path fill="#fff" d="M0 0h62v34H0z"/></clipPath></defs></svg>