<svg width="16" height="6" fill="none" xmlns="http://www.w3.org/2000/svg"><g clip-path="url(#a)"><path d="M240 6c-2.504 0-3.812-1.2-4.87-2.165-.946-.861-1.641-1.487-3.116-1.487-1.503 0-2.171.626-3.117 1.487C227.84 4.8 226.532 6 224.028 6c-2.505 0-3.812-1.2-4.87-2.165-.946-.861-1.641-1.487-3.116-1.487s-2.171.626-3.117 1.487C211.868 4.8 210.56 6 208.056 6c-2.505 0-3.813-1.2-4.87-2.165-.946-.861-1.642-1.487-3.116-1.487-1.503 0-2.171.626-3.117 1.487C195.896 4.8 194.588 6 192.083 6c-2.504 0-3.812-1.2-4.869-2.165-.946-.861-1.642-1.487-3.117-1.487-1.502 0-2.17.626-3.116 1.487C179.812 4.8 178.504 6 176 6s-3.812-1.2-4.87-2.165c-.946-.861-1.641-1.487-3.116-1.487-1.503 0-2.171.626-3.117 1.487C163.84 4.8 162.532 6 160.028 6c-2.505 0-3.812-1.2-4.87-2.165-.946-.861-1.641-1.487-3.116-1.487-1.503 0-2.171.626-3.117 1.487C147.812 4.8 146.504 6 144 6s-3.812-1.2-4.87-2.165c-.946-.861-1.641-1.487-3.116-1.487-1.503 0-2.171.626-3.117 1.487C131.84 4.8 130.532 6 128.028 6c-2.505 0-3.812-1.2-4.87-2.165-.946-.861-1.641-1.487-3.116-1.487s-2.171.626-3.117 1.487C115.84 4.8 114.504 6 112 6s-3.812-1.2-4.87-2.165c-.946-.861-1.641-1.487-3.116-1.487-1.503 0-2.171.626-3.117 1.487C99.84 4.8 98.532 6 96.027 6c-2.504 0-3.811-1.2-4.869-2.165-.946-.861-1.642-1.487-3.116-1.487-1.503 0-2.17.626-3.117 1.487C83.868 4.8 82.56 6 80.055 6c-2.504 0-3.812-1.2-4.869-2.165-.946-.861-1.642-1.487-3.116-1.487-1.475 0-2.17.626-3.117 1.487C67.896 4.8 66.588 6 64.083 6c-2.504 0-3.812-1.2-4.87-2.165-.945-.861-1.64-1.487-3.116-1.487-1.502 0-2.17.626-3.116 1.487C51.923 4.8 50.616 6 48.11 6c-2.504 0-3.812-1.2-4.87-2.165-.945-.861-1.641-1.487-3.116-1.487-1.502 0-2.17.626-3.116 1.487C35.95 4.8 34.644 6 32.139 6c-2.504 0-3.812-1.2-4.87-2.165-.946-.861-1.641-1.487-3.116-1.487-1.503 0-2.17.626-3.116 1.487C19.979 4.8 18.67 6 16.166 6s-3.812-1.2-4.87-2.165c-.946-.861-1.641-1.487-3.116-1.487s-2.17.626-3.117 1.487C4.007 4.8 2.7 6 .194 6-2.31 6-3.616 4.8-4.674 3.835c-.946-.861-1.642-1.487-3.116-1.487-1.503 0-2.17.626-3.117 1.487C-11.965 4.8-13.273 6-15.778 6c-2.504 0-3.812-1.2-4.869-2.165-.946-.861-1.642-1.487-3.116-1.487-1.503 0-2.17.626-3.117 1.487C-27.937 4.8-29.245 6-31.75 6c-2.504 0-3.812-1.2-4.87-2.165-.945-.861-1.64-1.487-3.116-1.487-1.502 0-2.17.626-3.116 1.487C-44.16 4.8-45.496 6-48 6s-3.812-1.2-4.87-2.165c-.946-.861-1.641-1.487-3.116-1.487-1.503 0-2.17.626-3.117 1.487C-60.16 4.8-61.468 6-63.973 6c-2.504 0-3.811-1.2-4.869-2.165-.974-.861-1.67-1.487-3.144-1.487-1.503 0-2.17.626-3.117 1.487C-76.188 4.8-77.496 6-80 6V3.652c1.503 0 2.17-.626 3.116-1.487C-75.825 1.2-74.517 0-71.986 0c2.504 0 3.812 1.2 4.87 2.165.946.861 1.641 1.487 3.116 1.487 1.503 0 2.17-.626 3.117-1.487C-59.826 1.2-58.49 0-55.986 0c2.504 0 3.812 1.2 4.87 2.165.946.861 1.641 1.487 3.116 1.487 1.503 0 2.17-.626 3.116-1.487C-43.825 1.2-42.517 0-40.014 0s3.812 1.2 4.87 2.165c.946.861 1.641 1.487 3.116 1.487 1.503 0 2.17-.626 3.117-1.487C-27.854 1.2-26.546 0-24.041 0c2.504 0 3.811 1.2 4.869 2.165.946.861 1.642 1.487 3.116 1.487 1.503 0 2.17-.626 3.117-1.487C-11.882 1.2-10.574 0-8.07 0-5.566 0-4.258 1.2-3.2 2.165c.946.861 1.642 1.487 3.116 1.487 1.503 0 2.17-.626 3.117-1.487C4.09 1.2 5.398 0 7.903 0c2.504 0 3.812 1.2 4.87 2.165.945.861 1.64 1.487 3.116 1.487 1.502 0 2.17-.626 3.116-1.487C20.063 1.2 21.37 0 23.875 0c2.504 0 3.812 1.2 4.87 2.165.945.861 1.641 1.487 3.116 1.487s2.17-.626 3.116-1.487C36.035 1.2 37.343 0 39.847 0s3.812 1.2 4.87 2.165c.946.861 1.641 1.487 3.116 1.487 1.503 0 2.17-.626 3.117-1.487C52.007 1.2 53.315 0 55.82 0c2.503 0 3.811 1.2 4.869 2.165.946.861 1.641 1.487 3.116 1.487 1.503 0 2.17-.626 3.117-1.487C67.979 1.2 69.287 0 71.792 0c2.504 0 3.812 1.2 4.869 2.165.946.861 1.642 1.487 3.116 1.487 1.503 0 2.17-.626 3.117-1.487C83.95 1.2 85.259 0 87.764 0c2.504 0 3.812 1.2 4.869 2.165.946.861 1.642 1.487 3.117 1.487 1.502 0 2.17-.626 3.116-1.487C99.924 1.2 101.231 0 103.736 0c2.504 0 3.812 1.2 4.869 2.165.946.861 1.642 1.487 3.117 1.487 1.502 0 2.17-.626 3.116-1.487C115.896 1.2 117.203 0 119.708 0c2.504 0 3.812 1.2 4.869 2.165.946.861 1.642 1.487 3.117 1.487 1.503 0 2.17-.626 3.116-1.487C131.868 1.2 133.176 0 135.68 0s3.812 1.2 4.87 2.165c.946.861 1.641 1.487 3.116 1.487 1.503 0 2.171-.626 3.117-1.487C148.174 1.2 149.482 0 152.014 0c2.504 0 3.812 1.2 4.869 2.165.947.861 1.642 1.487 3.117 1.487s2.17-.626 3.117-1.487C164.174 1.2 165.482 0 167.986 0c2.504 0 3.812 1.2 4.87 2.165.946.861 1.641 1.487 3.116 1.487s2.171-.626 3.117-1.487C180.174 1.2 181.482 0 184.014 0s3.812 1.2 4.869 2.165c.947.861 1.642 1.487 3.117 1.487s2.17-.626 3.117-1.487C196.174 1.2 197.482 0 199.986 0c2.504 0 3.812 1.2 4.87 2.165.946.861 1.641 1.487 3.116 1.487 1.503 0 2.171-.626 3.117-1.487C212.146 1.2 213.454 0 215.958 0c2.505 0 3.812 1.2 4.87 2.165.946.861 1.642 1.487 3.116 1.487 1.475 0 2.171-.626 3.117-1.487C228.118 1.2 229.426 0 231.93 0c2.505 0 3.813 1.2 4.87 2.165.946.861 1.642 1.487 3.116 1.487V6H240Z" fill="#F1F1F1"/></g><defs><clipPath id="a"><path fill="#fff" d="M0 0h16v6H0z"/></clipPath></defs></svg>