<svg width="52" height="23" fill="none" xmlns="http://www.w3.org/2000/svg"><g clip-path="url(#a)"><path d="M472 23c-8.217 0-12.509-4.6-15.978-8.3-3.105-3.3-5.387-5.7-10.226-5.7-4.931 0-7.122 2.4-10.226 5.7-3.47 3.7-7.761 8.3-15.979 8.3-8.217 0-12.508-4.6-15.978-8.3-3.104-3.3-5.387-5.7-10.226-5.7-4.839 0-7.122 2.4-10.226 5.7-3.47 3.7-7.761 8.3-15.978 8.3-8.218 0-12.509-4.6-15.979-8.3-3.104-3.3-5.387-5.7-10.226-5.7-4.93 0-7.121 2.4-10.226 5.7-3.469 3.7-7.761 8.3-15.978 8.3-8.217 0-12.509-4.6-15.978-8.3-3.105-3.3-5.387-5.7-10.226-5.7-4.931 0-7.122 2.4-10.226 5.7-3.835 3.7-8.127 8.3-16.344 8.3s-12.509-4.6-15.978-8.3c-3.105-3.3-5.387-5.7-10.226-5.7-4.931 0-7.122 2.4-10.226 5.7-3.47 3.7-7.761 8.3-15.979 8.3-8.217 0-12.508-4.6-15.978-8.3-3.104-3.3-5.387-5.7-10.226-5.7-4.93 0-7.122 2.4-10.226 5.7-3.652 3.7-7.944 8.3-16.161 8.3-8.217 0-12.509-4.6-15.978-8.3-3.105-3.3-5.387-5.7-10.226-5.7-4.931 0-7.122 2.4-10.226 5.7-3.47 3.7-7.761 8.3-15.979 8.3-8.217 0-12.508-4.6-15.978-8.3C85.509 11.4 83.226 9 78.387 9c-4.84 0-7.122 2.4-10.226 5.7C64.6 18.4 60.217 23 52 23c-8.217 0-12.509-4.6-15.978-8.3C32.917 11.4 30.635 9 25.796 9c-4.93 0-7.122 2.4-10.226 5.7C12.1 18.4 7.809 23-.41 23c-8.217 0-12.508-4.6-15.978-8.3-3.104-3.3-5.387-5.7-10.226-5.7-4.93 0-7.122 2.4-10.226 5.7-3.47 3.7-7.761 8.3-15.978 8.3-8.218 0-12.509-4.6-15.979-8.3C-71.9 11.4-74.183 9-79.022 9c-4.839 0-7.121 2.4-10.226 5.7-3.47 3.7-7.76 8.3-15.978 8.3-8.217 0-12.509-4.6-15.978-8.3-3.105-3.3-5.387-5.7-10.226-5.7-4.931 0-7.122 2.4-10.227 5.7-3.469 3.7-7.76 8.3-15.978 8.3-8.217 0-12.508-4.6-15.978-8.3C-176.717 11.4-179 9-183.839 9c-4.931 0-7.122 2.4-10.226 5.7-3.47 3.7-7.761 8.3-15.978 8.3-8.218 0-12.509-4.6-15.979-8.3-3.104-3.3-5.387-5.7-10.226-5.7-4.93 0-7.122 2.4-10.226 5.7-3.469 3.7-7.761 8.3-15.978 8.3-8.218 0-12.509-4.6-15.978-8.3-3.105-3.3-5.387-5.7-10.227-5.7-4.839 0-7.121 2.4-10.226 5.7-3.469 3.7-7.76 8.3-15.978 8.3-8.217 0-12.509-4.6-15.978-8.3-3.104-3.3-5.387-5.7-10.226-5.7-4.931 0-7.122 2.4-10.226 5.7-3.47 3.7-7.761 8.3-15.979 8.3-8.217 0-12.508-4.6-15.978-8.3-3.104-3.3-5.387-5.7-10.226-5.7-4.93 0-7.122 2.4-10.226 5.7-3.47 3.7-7.761 8.3-15.978 8.3-8.218 0-12.509-4.6-15.979-8.3-3.104-3.3-5.386-5.7-10.226-5.7-4.93 0-7.121 2.4-10.226 5.7C-460.4 18.4-464.783 23-473 23c-8.217 0-12.509-4.6-15.978-8.3-3.105-3.3-5.387-5.7-10.226-5.7-4.931 0-7.122 2.4-10.226 5.7-3.47 3.7-7.761 8.3-15.979 8.3-8.217 0-12.508-4.6-15.978-8.3-3.196-3.3-5.478-5.7-10.317-5.7-4.931 0-7.122 2.4-10.226 5.7-3.561 3.7-7.853 8.3-16.07 8.3v-9c4.93 0 7.122-2.4 10.226-5.7 3.47-3.7 7.761-8.3 16.07-8.3 8.217 0 12.508 4.6 15.978 8.3 3.104 3.3 5.387 5.7 10.226 5.7 4.93 0 7.122-2.4 10.226-5.7 3.47-3.7 7.852-8.3 16.07-8.3 8.217 0 12.508 4.6 15.978 8.3 3.104 3.3 5.387 5.7 10.226 5.7 4.93 0 7.122-2.4 10.226-5.7 3.47-3.7 7.761-8.3 15.978-8.3 8.218 0 12.509 4.6 15.979 8.3 3.104 3.3 5.387 5.7 10.226 5.7 4.93 0 7.121-2.4 10.226-5.7 3.469-3.7 7.761-8.3 15.978-8.3 8.217 0 12.509 4.6 15.978 8.3 3.105 3.3 5.387 5.7 10.226 5.7 4.931 0 7.122-2.4 10.226-5.7 3.47-3.7 7.761-8.3 15.979-8.3 8.217 0 12.508 4.6 15.978 8.3 3.104 3.3 5.387 5.7 10.226 5.7 4.931 0 7.122-2.4 10.226-5.7 3.47-3.7 7.761-8.3 15.978-8.3 8.218 0 12.509 4.6 15.979 8.3 3.104 3.3 5.387 5.7 10.226 5.7 4.93 0 7.122-2.4 10.226-5.7 3.469-3.7 7.761-8.3 15.978-8.3 8.218 0 12.509 4.6 15.978 8.3 3.105 3.3 5.387 5.7 10.226 5.7 4.84 0 7.122-2.4 10.227-5.7 3.469-3.7 7.76-8.3 15.978-8.3 8.217 0 12.509 4.6 15.978 8.3 3.104 3.3 5.387 5.7 10.226 5.7 4.931 0 7.122-2.4 10.226-5.7 3.47-3.7 7.761-8.3 15.979-8.3 8.217 0 12.508 4.6 15.978 8.3 3.104 3.3 5.387 5.7 10.226 5.7 4.93 0 7.122-2.4 10.226-5.7 3.47-3.7 7.76-8.3 15.978-8.3s12.509 4.6 15.979 8.3c3.104 3.3 5.387 5.7 10.226 5.7 4.93 0 7.121-2.4 10.226-5.7 3.47-3.7 7.76-8.3 15.978-8.3s12.509 4.6 15.978 8.3C-8.443 11.6-6.16 14-1.322 14c4.93 0 7.122-2.4 10.226-5.7C12.374 4.6 16.665 0 24.883 0S37.39 4.6 40.86 8.3c3.104 3.3 5.387 5.7 10.226 5.7 4.93 0 7.122-2.4 10.226-5.7 3.47-3.7 7.76-8.3 15.978-8.3S89.8 4.6 93.27 8.3c3.104 3.3 5.387 5.7 10.226 5.7 4.93 0 7.121-2.4 10.226-5.7C117.191 4.6 121.483 0 129.7 0c8.217 0 12.509 4.6 15.978 8.3 3.105 3.3 5.387 5.7 10.226 5.7 4.931 0 7.122-2.4 10.226-5.7 4.566-3.7 8.857-8.3 17.166-8.3 8.217 0 12.508 4.6 15.978 8.3 3.104 3.3 5.387 5.7 10.226 5.7 4.839 0 7.122-2.4 10.226-5.7 3.47-3.7 7.761-8.3 15.978-8.3 8.218 0 12.509 4.6 15.979 8.3 3.104 3.3 5.387 5.7 10.226 5.7 4.839 0 7.121-2.4 10.226-5.7 3.561-3.7 7.852-8.3 16.161-8.3 8.308 0 12.508 4.6 15.978 8.3 3.104 3.3 5.387 5.7 10.226 5.7 4.839 0 7.122-2.4 10.226-5.7 3.47-3.7 7.761-8.3 15.978-8.3 8.218 0 12.509 4.6 15.979 8.3 3.104 3.3 5.387 5.7 10.226 5.7 4.93 0 7.121-2.4 10.226-5.7 3.469-3.7 7.761-8.3 15.978-8.3 8.217 0 12.509 4.6 15.978 8.3 3.105 3.3 5.387 5.7 10.226 5.7 4.84 0 7.122-2.4 10.227-5.7 3.469-3.7 7.76-8.3 15.978-8.3 8.217 0 12.509 4.6 15.978 8.3 3.104 3.3 5.387 5.7 10.226 5.7v9H472Z" fill="#F1F1F1"/></g><defs><clipPath id="a"><path fill="#fff" d="M0 0h52v23H0z"/></clipPath></defs></svg>