<svg width="38" height="24" fill="none" xmlns="http://www.w3.org/2000/svg"><g clip-path="url(#a)"><path d="M403.784 0c-9.642 0-9.642 9.882-19.217 9.882S374.925 0 365.35 0c-9.574 0-9.641 9.882-19.216 9.882-9.642 0-9.642-9.882-19.284-9.882-9.641 0-9.641 9.882-19.216 9.882-9.642 0-9.642-9.882-19.217-9.882-9.641 0-9.641 9.882-19.216 9.882-9.575 0-9.843-9.882-19.418-9.882-9.641 0-9.641 9.882-19.216 9.882-9.575 0-9.709-9.882-19.284-9.882-9.641 0-9.641 9.882-19.216 9.882-9.642 0-9.642-9.882-19.284-9.882-9.641 0-9.641 9.882-19.216 9.882-9.642 0-9.642-9.882-19.217-9.882-9.574 0-9.708 9.882-19.35 9.882-9.642 0-9.642-9.882-19.217-9.882-9.641 0-9.641 9.882-19.216 9.882C66.925 9.882 66.925 0 57.283 0c-9.641 0-9.641 9.882-19.216 9.882C28.425 9.882 28.425 0 18.85 0 9.21 0 9.21 9.882-.366 9.882-10.008 9.882-10.008 0-19.583 0c-9.641 0-9.641 9.882-19.283 9.882C-48.508 9.882-48.508 0-58.15 0c-9.641 0-9.641 9.882-19.283 9.882C-87.075 9.882-87.075 0-96.716 0c-9.642 0-9.642 9.882-19.284 9.882S-125.642 0-135.283 0c-9.642 0-9.642 9.882-19.284 9.882S-164.209 0-173.85 0c-9.642 0-9.642 9.882-19.217 9.882-9.642 0-9.642-9.882-19.283-9.882-9.642 0-9.642 9.882-19.284 9.882S-241.276 0-250.917 0c-9.642 0-9.642 9.882-19.284 9.882S-279.843 0-289.484 0c-9.374 0-9.374 9.882-19.016 9.882-9.642 0-9.642-9.882-19.217-9.882-9.574 0-9.641 9.882-19.283 9.882V24h770V9.882c-9.642 0-9.642-9.882-19.216-9.882Z" fill="#fff"/></g><defs><clipPath id="a"><path fill="#fff" d="M0 0h38v24H0z"/></clipPath></defs></svg>