<svg width="320" height="6" viewBox="0 0 320 6" fill="none" xmlns="http://www.w3.org/2000/svg"><path d="M320 6c-2.504 0-3.812-1.2-4.87-2.1652-.946-.8609-1.641-1.487-3.116-1.487-1.503 0-2.171.6261-3.117 1.487C307.84 4.8 306.532 6 304.028 6c-2.505 0-3.812-1.2-4.87-2.1652-.946-.8609-1.641-1.487-3.116-1.487s-2.171.6261-3.117 1.487C291.868 4.8 290.56 6 288.056 6c-2.505 0-3.813-1.2-4.87-2.1652-.946-.8609-1.642-1.487-3.116-1.487-1.503 0-2.171.6261-3.117 1.487C275.896 4.8 274.588 6 272.083 6c-2.504 0-3.812-1.2-4.869-2.1652-.946-.8609-1.642-1.487-3.117-1.487-1.502 0-2.17.6261-3.116 1.487C259.812 4.8 258.504 6 256 6s-3.812-1.2-4.87-2.1652c-.946-.8609-1.641-1.487-3.116-1.487-1.503 0-2.171.6261-3.117 1.487C243.84 4.8 242.532 6 240.028 6c-2.505 0-3.812-1.2-4.87-2.1652-.946-.8609-1.641-1.487-3.116-1.487-1.503 0-2.171.6261-3.117 1.487C227.812 4.8 226.504 6 224 6s-3.812-1.2-4.87-2.1652c-.946-.8609-1.641-1.487-3.116-1.487-1.503 0-2.171.6261-3.117 1.487C211.84 4.8 210.532 6 208.028 6c-2.505 0-3.812-1.2-4.87-2.1652-.946-.8609-1.641-1.487-3.116-1.487s-2.171.6261-3.117 1.487C195.84 4.8 194.504 6 192 6s-3.812-1.2-4.87-2.1652c-.946-.8609-1.641-1.487-3.116-1.487-1.503 0-2.171.6261-3.117 1.487C179.84 4.8 178.532 6 176.028 6c-2.505 0-3.812-1.2-4.87-2.1652-.946-.8609-1.641-1.487-3.116-1.487-1.503 0-2.171.6261-3.117 1.487C163.868 4.8 162.56 6 160.056 6c-2.505 0-3.813-1.2-4.87-2.1652-.946-.8609-1.642-1.487-3.116-1.487-1.475 0-2.171.6261-3.117 1.487C147.896 4.8 146.588 6 144.083 6c-2.504 0-3.812-1.2-4.869-2.1652-.946-.8609-1.642-1.487-3.117-1.487-1.502 0-2.17.6261-3.116 1.487C131.923 4.8 130.616 6 128.111 6c-2.504 0-3.812-1.2-4.869-2.1652-.946-.8609-1.642-1.487-3.117-1.487-1.502 0-2.17.6261-3.116 1.487C115.951 4.8 114.643 6 112.139 6s-3.812-1.2-4.869-2.1652c-.947-.8609-1.642-1.487-3.117-1.487-1.503 0-2.17.6261-3.116 1.487C99.9791 4.8 98.6713 6 96.167 6c-2.5044 0-3.8122-1.2-4.8696-2.1652-.9461-.8609-1.6418-1.487-3.1165-1.487-1.4748 0-2.1705.6261-3.1166 1.487C84.007 4.8 82.6991 6 80.1948 6c-2.5044 0-3.8122-1.2-4.8696-2.1652-.9461-.8609-1.6417-1.487-3.1165-1.487-1.5026 0-2.1704.6261-3.1165 1.487C68.0348 4.8 66.727 6 64.2226 6c-2.5043 0-3.8122-1.2-4.8696-2.1652-.946-.8609-1.6417-1.487-3.1165-1.487-1.5026 0-2.1704.6261-3.1165 1.487C52.0626 4.8 50.7548 6 48.2504 6c-2.5043 0-3.8121-1.2-4.8695-2.1652-.9461-.8609-1.6418-1.487-3.1166-1.487-1.5026 0-2.1704.6261-3.1165 1.487C35.84 4.8 34.5043 6 32 6s-3.8122-1.2-4.8696-2.1652c-.9461-.8609-1.6417-1.487-3.1165-1.487-1.5026 0-2.1704.6261-3.1165 1.487C19.84 4.8 18.5322 6 16.0278 6c-2.5043 0-3.8121-1.2-4.8695-2.1652-.974-.8609-1.6696-1.487-3.1444-1.487-1.5026 0-2.1704.6261-3.1165 1.487C3.8122 4.8 2.5044 6 0 6V3.6522c1.5026 0 2.1704-.6261 3.1165-1.487C4.174 1.2 5.4817 0 8.014 0c2.5044 0 3.8122 1.2 4.8696 2.1652.9461.8609 1.6417 1.487 3.1165 1.487 1.5026 0 2.1704-.6261 3.1165-1.487C20.1739 1.2 21.5096 0 24.0139 0c2.5044 0 3.8122 1.2 4.8696 2.1652.9461.8609 1.6417 1.487 3.1165 1.487 1.5026 0 2.1704-.6261 3.1165-1.487C36.1739 1.2 37.4817 0 39.9861 0c2.5043 0 3.8122 1.2 4.8695 2.1652.9461.8609 1.6418 1.487 3.1166 1.487 1.5026 0 2.1704-.6261 3.1165-1.487C52.1461 1.2 53.4539 0 55.9583 0c2.5043 0 3.8121 1.2 4.8695 2.1652.9461.8609 1.6418 1.487 3.1165 1.487 1.5027 0 2.1705-.6261 3.1166-1.487C68.1183 1.2 69.4261 0 71.9304 0c2.5044 0 3.8122 1.2 4.8696 2.1652.9461.8609 1.6417 1.487 3.1165 1.487 1.5026 0 2.1705-.6261 3.1165-1.487C84.0904 1.2 85.3983 0 87.9026 0c2.5044 0 3.8122 1.2 4.8696 2.1652.9461.8609 1.6417 1.487 3.1165 1.487 1.5026 0 2.1704-.6261 3.1165-1.487C100.063 1.2 101.37 0 103.875 0c2.504 0 3.812 1.2 4.869 2.1652.946.8609 1.642 1.487 3.117 1.487s2.17-.6261 3.116-1.487C116.035 1.2 117.343 0 119.847 0s3.812 1.2 4.87 2.1652c.946.8609 1.641 1.487 3.116 1.487 1.503 0 2.17-.6261 3.117-1.487C132.007 1.2 133.315 0 135.819 0c2.504 0 3.812 1.2 4.87 2.1652.946.8609 1.641 1.487 3.116 1.487 1.503 0 2.171-.6261 3.117-1.487C147.979 1.2 149.287 0 151.791 0c2.505 0 3.812 1.2 4.87 2.1652.946.8609 1.642 1.487 3.116 1.487 1.503 0 2.171-.6261 3.117-1.487C163.951 1.2 165.259 0 167.763 0c2.505 0 3.813 1.2 4.87 2.1652.946.8609 1.642 1.487 3.117 1.487 1.502 0 2.17-.6261 3.116-1.487C179.923 1.2 181.231 0 183.736 0c2.504 0 3.812 1.2 4.869 2.1652.946.8609 1.642 1.487 3.117 1.487 1.502 0 2.17-.6261 3.116-1.487C195.896 1.2 197.203 0 199.708 0c2.504 0 3.812 1.2 4.869 2.1652.946.8609 1.642 1.487 3.117 1.487 1.503 0 2.17-.6261 3.116-1.487C211.868 1.2 213.176 0 215.68 0s3.812 1.2 4.87 2.1652c.946.8609 1.641 1.487 3.116 1.487 1.503 0 2.171-.6261 3.117-1.487C228.174 1.2 229.482 0 232.014 0c2.504 0 3.812 1.2 4.869 2.1652.947.8609 1.642 1.487 3.117 1.487s2.17-.6261 3.117-1.487C244.174 1.2 245.482 0 247.986 0c2.504 0 3.812 1.2 4.87 2.1652.946.8609 1.641 1.487 3.116 1.487s2.171-.6261 3.117-1.487C260.174 1.2 261.482 0 264.014 0s3.812 1.2 4.869 2.1652c.947.8609 1.642 1.487 3.117 1.487s2.17-.6261 3.117-1.487C276.174 1.2 277.482 0 279.986 0c2.504 0 3.812 1.2 4.87 2.1652.946.8609 1.641 1.487 3.116 1.487 1.503 0 2.171-.6261 3.117-1.487C292.146 1.2 293.454 0 295.958 0c2.505 0 3.812 1.2 4.87 2.1652.946.8609 1.642 1.487 3.116 1.487 1.475 0 2.171-.6261 3.117-1.487C308.118 1.2 309.426 0 311.93 0c2.505 0 3.813 1.2 4.87 2.1652.946.8609 1.642 1.487 3.117 1.487V6H320Z" fill="#F1F1F1"/></svg>