<svg width="25" height="24" fill="none" xmlns="http://www.w3.org/2000/svg"><path d="M17.44 24h-1.11c-4.939-.593-8.568-2.864-11.189-5.728C2.521 15.408.403 11.753 0 6.716V5.333c.1-.888.504-1.481 1.109-2.074.605-.69 1.613-1.481 2.52-1.58.706 0 1.815.494 2.218 1.087.403.493.605 1.58.806 2.37.202.889.605 1.975.504 2.765-.201 1.186-1.814 1.68-2.218 2.568 1.613 3.655 4.133 6.42 7.561 8.198.806-.494 1.613-1.877 2.823-1.877.403 0 1.008.198 1.41.296.505.1.908.297 1.311.494.706.297 2.016.593 2.42 1.185s.705 1.58.605 2.173c-.303 1.284-2.42 2.667-3.63 3.062ZM12.6 1.482c5.948 0 10.888 4.74 10.888 10.666H25C25 5.432 19.456 0 12.6 0v1.482Z" fill="#62D1BA"/><path d="M12.6 9.185v1.58c.807 0 1.412.593 1.412 1.383h1.613c0-1.58-1.31-2.963-3.024-2.963Zm0-3.061c3.327 0 6.15 2.666 6.15 6.024h1.613c0-4.148-3.427-7.506-7.661-7.506v1.482H12.6Z" fill="#62D1BA"/></svg>