<svg width="60" height="61" viewBox="0 0 60 61" fill="none" xmlns="http://www.w3.org/2000/svg"><path d="M0 44.7265 27.4 61V37.1527L0 20.7768v23.9497Zm51.3-32.0352V15.25c0 1.8423-3.5 3.3775-7.7 3.3775-4.3 0-7.7-1.5352-7.7-3.3775v-4.1963c.3 1.7399 3.6 3.1728 7.7 3.1728 4.3 0 7.7-1.5352 7.7-3.3775s-3.5-3.3775-7.7-3.3775h-1l-5-2.9681v3.1728c0 1.8423-3.5 3.3775-7.7 3.3775-2.7 0-5-.6141-6.4-1.5352-.2-.2047-.4-.4094-.7-.6141-.4-.4094-.6-.8188-.6-1.2282V4.6057l-4.8 2.8658h-1.1c-4.3 0-7.7 1.5352-7.7 3.3775s3.5 3.3775 7.7 3.3775c4.1 0 7.4-1.4329 7.7-3.1728V15.25c0 1.8423-3.5 3.3775-7.7 3.3775-4.3 0-7.7-1.5352-7.7-3.3775v-2.4564l-6 3.5822 27.5 16.3759 27.4-16.2735-6.2-3.7869ZM37.7 23.1309c0 1.8423-3.5 3.3775-7.7 3.3775-4.3 0-7.7-1.5352-7.7-3.3775v-4.1963c.3 1.7399 3.6 3.1728 7.7 3.1728s7.4-1.4329 7.7-3.1728v4.1963Zm-5.1 14.2265V61L60 44.7265V21.0839L32.6 37.3574ZM29.9 6.755c4.3 0 7.7-1.5352 7.7-3.3775S34.1 0 29.9 0c-4.3 0-7.7 1.5352-7.7 3.3775s3.4 3.3775 7.7 3.3775Z" fill="#149080"/></svg>