<svg width="41" height="62" viewBox="0 0 41 62" fill="none" xmlns="http://www.w3.org/2000/svg"><path d="M15.5024 37.7564c-.3059.9936-.2039 2.1859 0 3.5769.51 2.5833 1.7339 5.9616 2.4478 9.6378h5.2015c.7139-3.5769 1.9378-6.9551 2.5497-9.6378.306-1.391.306-2.6827 0-3.5769-.3059-.8942-.9179-1.5898-2.0398-2.2853h-6.1194c-1.2238.6955-1.8358 1.3911-2.0398 2.2853ZM27.5373 57.6282H13.4627c-1.3259 0-2.3458.9936-2.3458 2.1859V62h18.7662v-2.1859c0-1.1923-1.0199-2.1859-2.3458-2.1859ZM34.7786 2.2859H22.8458c0-1.1923-1.0199-2.186-2.3458-2.186s-2.3458.9937-2.3458 2.186H6.2214L0 27.6224c.816-.4968 1.6319-.9936 2.6517-.9936 1.428 0 2.2438.7949 2.9577 1.391.714.5962 1.224.7949 1.428.7949.3059 0 .8158-.2981 1.5298-.7949.7139-.4967 1.6318-1.391 2.9577-1.391 1.3258 0 2.2438.7949 2.9577 1.391.7139.4968 1.2239.7949 1.5298.7949.102 0 .306-.0993.612-.1987.2039-.0994.5099-.3974.9179-.5962.5099-.3974 1.1219-.9935 2.0398-1.1923.306-.0993.6119-.0993.9179-.0993 1.3259 0 2.2438.7949 2.9577 1.391.7139.4968 1.2239.7949 1.5299.7949.3059 0 .8159-.2981 1.4278-.7949.7139-.5961 1.6318-1.391 2.9577-1.391 1.4279 0 2.2438.7949 2.9577 1.391.306.2981.612.4968.9179.5962.204.0993.408.1987.612.1987.306 0 .8159-.2981 1.4278-.8943.714-.5961 1.6319-1.391 2.9578-1.391 1.0199 0 1.8358.4968 2.6517.9936L34.7786 2.2859ZM23.9676 53.157h-7.0374c-.7139 0-1.1219.4968-1.1219 1.093 0 .5961.51 1.0929 1.1219 1.0929h7.0374c.7139 0 1.1218-.4968 1.1218-1.0929.102-.5962-.4079-1.093-1.1218-1.093Z" fill="#149080"/><path d="M20.5 28.8141c-.102 0-.306.0993-.6119.1987-.204.0994-.408.2981-.612.3974v3.6763h2.3458v-3.5769c-.51-.3974-.9179-.6955-1.1219-.6955Z" fill="#149080"/></svg>