<svg width="768" height="24" viewBox="0 0 768 24" fill="none" xmlns="http://www.w3.org/2000/svg"><path d="M749.783 0c-9.641 0-9.641 9.8824-19.216 9.8824C720.992 9.8824 720.925 0 711.35 0c-9.574 0-9.641 9.8824-19.216 9.8824C682.492 9.8824 682.492 0 672.85 0c-9.641 0-9.641 9.8824-19.216 9.8824-9.642 0-9.642-9.8824-19.217-9.8824-9.641 0-9.641 9.8824-19.216 9.8824-9.575 0-9.843-9.8824-19.418-9.8824-9.641 0-9.641 9.8824-19.216 9.8824-9.575 0-9.709-9.8824-19.284-9.8824-9.641 0-9.641 9.8824-19.216 9.8824-9.642 0-9.642-9.8824-19.284-9.8824-9.641 0-9.641 9.8824-19.216 9.8824C489.925 9.8824 489.925 0 480.35 0c-9.574 0-9.708 9.8824-19.35 9.8824-9.642 0-9.642-9.8824-19.217-9.8824-9.641 0-9.641 9.8824-19.216 9.8824-9.642 0-9.642-9.8824-19.284-9.8824-9.641 0-9.641 9.8824-19.216 9.8824C374.425 9.8824 374.425 0 364.85 0c-9.641 0-9.641 9.8824-19.216 9.8824-9.642 0-9.642-9.8824-19.217-9.8824-9.641 0-9.641 9.8824-19.283 9.8824C297.492 9.8824 297.492 0 287.85 0c-9.641 0-9.641 9.8824-19.283 9.8824-9.642 0-9.642-9.8824-19.284-9.8824-9.641 0-9.641 9.8824-19.283 9.8824-9.642 0-9.642-9.8824-19.283-9.8824-9.642 0-9.642 9.8824-19.284 9.8824S181.791 0 172.15 0c-9.642 0-9.642 9.8824-19.217 9.8824C143.291 9.8824 143.291 0 133.65 0c-9.642 0-9.642 9.8824-19.284 9.8824S104.724 0 95.0826 0c-9.6417 0-9.6417 9.8824-19.2835 9.8824C66.1574 9.8824 66.1574 0 56.5157 0c-9.374 0-9.374 9.8824-19.0157 9.8824C27.8583 9.8824 27.8583 0 18.2835 0S8.6417 9.8824-1 9.8824V24h770V9.8824C759.358 9.8824 759.358 0 749.783 0Z" fill="#fff"/></svg>