<svg width="38" height="24" viewBox="0 0 38 24" fill="none" xmlns="http://www.w3.org/2000/svg"><g clip-path="url(#a)"><path d="M403.784 0c-9.642 0-9.642 9.8824-19.217 9.8824S374.925 0 365.35 0c-9.574 0-9.641 9.8824-19.216 9.8824C336.492 9.8824 336.492 0 326.85 0c-9.641 0-9.641 9.8824-19.216 9.8824-9.642 0-9.642-9.8824-19.217-9.8824-9.641 0-9.641 9.8824-19.216 9.8824-9.575 0-9.843-9.8824-19.418-9.8824-9.641 0-9.641 9.8824-19.216 9.8824-9.575 0-9.709-9.8824-19.284-9.8824-9.641 0-9.641 9.8824-19.216 9.8824-9.642 0-9.642-9.8824-19.284-9.8824-9.641 0-9.641 9.8824-19.216 9.8824C143.925 9.8824 143.925 0 134.35 0c-9.574 0-9.708 9.8824-19.35 9.8824C105.358 9.8824 105.358 0 95.7834 0c-9.6417 0-9.6417 9.8824-19.2165 9.8824C66.9252 9.8824 66.9252 0 57.2834 0c-9.6417 0-9.6417 9.8824-19.2165 9.8824C28.4252 9.8824 28.4252 0 18.8504 0 9.2087 0 9.2087 9.8824-.3661 9.8824-10.0078 9.8824-10.0078 0-19.5826 0c-9.6418 0-9.6417 9.8824-19.2835 9.8824C-48.5078 9.8824-48.5078 0-58.1496 0c-9.6417 0-9.6417 9.8824-19.2834 9.8824C-87.0748 9.8824-87.0748 0-96.7165 0-106.358 0-106.358 9.8824-116 9.8824S-125.642 0-135.283 0c-9.642 0-9.642 9.8824-19.284 9.8824S-164.209 0-173.85 0c-9.642 0-9.642 9.8824-19.217 9.8824-9.642 0-9.642-9.8824-19.283-9.8824-9.642 0-9.642 9.8824-19.284 9.8824S-241.276 0-250.917 0c-9.642 0-9.642 9.8824-19.284 9.8824S-279.843 0-289.484 0c-9.374 0-9.374 9.8824-19.016 9.8824-9.642 0-9.642-9.8824-19.217-9.8824-9.574 0-9.641 9.8824-19.283 9.8824V24h770V9.8824C413.358 9.8824 413.358 0 403.784 0Z" fill="#fff"/></g><defs><clipPath id="a"><path fill="#fff" d="M0 0h38v24H0z"/></clipPath></defs></svg>