<svg width="102" height="34" viewBox="0 0 102 34" fill="none" xmlns="http://www.w3.org/2000/svg"><path d="M19.2204 21.3813c-.1-2.6851-.5-5.2708-.5-7.9558 0-2.1879.4-4.3757-.4-6.4641 0-.199.1-.4973.1-.6962.2-.9945-3.3-.4972-3.8.4973-.3.2983-.5.5966-.4.9944 0 .0995.1.199.1.2984-.7 3.1823-1.6 6.2652-2.6 9.3481-.4 1.1933-.9 2.2873-1.3 3.4806-.6-1.0939-1.2-2.1878-1.6-3.3812-1.4-3.3812-2.6-6.8619-4.3-10.1437.2-1.4917-3.2-1.3922-3.9 0-.8 1.6907-.7 3.3813-.4 5.1713.3 1.989.4 3.9779.4 6.0663 0 3.9779.4 7.8564.4 11.8343-.4.3978-.5.895-.1 1.3923.2.1989.4.3978.6.4972 1 .6962 3.6.0995 3.6-1.2928 0-4.0774-.3-8.1547-.4-12.3315v-1.1934c.1.0995.1.2984.2.3978.6 1.5912 1.3 3.1823 2.2 4.674.9 1.4918 1.3 3.0829 1.8 4.6741-.2.1989-.3.4972-.2.6961 0 .1989.1.2984.3.3978.6.4973 1.8.2984 2.5 0 .3-.0994.6-.2983.8-.3978.3-.1989.9-.6961.7-1.1934 0-.0994-.1-.1988-.1-.2983.5-1.2928.7-2.5856 1-3.8785.3-1.3922.8-2.7845 1.3-4.0773.1.5967.1 1.1934.2 1.8895.2 2.5856 0 5.0718 0 7.558 0 .7956.1 1.5912.2 2.4862.1.2984.4 1.7901.3 1.8895-.8.4973-.6 1.0939.2 1.2928.9.1989 2.1-.0994 2.8-.6961 1.2-1.0939.6-2.7845.4-4.1768-.5-2.3867 0-4.9724-.1-7.3591ZM27.6201 22.0776c-.1-1.9889-.8-3.8784-.8-5.8674 0-2.2873.2-4.5746-.2-6.8619-.1-.6961-4.1.0995-3.9.9945.3 2.0884.2 4.1768.2 6.3647 0 1.9889.5 3.8784.7 5.8674.3 2.0884-.1 4.1768.1 6.1657.1.9945.8 2.6851.1 3.5802-.4.4972 1.5.2983 1.6.2983.8-.0995 1.8-.3978 2.3-.9945.7-.7956.2-2.3867.1-3.3812-.3-1.989-.1-4.1768-.2-6.1658ZM43.9205 18.7956c-2.1-2.7845-5.9-.7955-8.6-1.4917-1.4-.3978-1.4-2.2873-1.4-3.3812 0-1.3923-.1-2.6851-.3-4.0774-.1-1.0939 0-2.0884.7-2.884.1-.0994.9-.2983.8-.2983.4-.0994.7-.0994 1.1-.0994 1.5-.0995 4.6.1989 4 2.4862-.3.9944 3.6.3978 3.9-.5967 1.2-4.5746-7.3-3.6796-9.7-3.0829-2.2.5967-4.6 1.79-4.8 4.3757-.1 1.1934.3 2.3867.3 3.5801.1 1.3923-.2 2.7846.3 4.0774 1.1 2.9834 5.5 1.5911 7.8 1.6906 3.8.2983 2.7 5.4696 2.7 7.8564 0 1.2928 1.2 3.3812.2 4.4751-.6.6961-2 .6961-2.8.7956-.8.0994-2.2.2983-2.7-.4973-1-1.3922.1-3.779-.1-5.3701-.1-.8951-4.1-.0995-3.9.9944.3 2.5857-1.4 6.0664 2.4 6.5636 2.4.2983 5.2-.1989 7.5-.895 1.2-.3978 2.3-.8951 3.2-1.7901 1-.895.7-2.2873.4-3.4807-.5-3.0828.9-6.4641-1-8.9503ZM61.3201 18.5966c-.1-3.779-.7-7.4585-.7-11.2375 0-1.989-4-1.2929-4 .2983 0 3.5801.5 7.1602.7 10.7403v.1989c-1.9 0-3.9.1989-5.9.1989.2-4.5746-.6-9.1492-.4-13.8232 0-.5967-3.9-.0995-3.9.9945-.2 4.4751.6 8.8508.5 13.326-.1 2.0884-.2 4.2762-.3 6.3646 0 1.094.2 2.1879.3 3.2818.1.9945.5 2.2873.2 3.2818-.2.7956 3.6.2983 3.9-.6962.5-1.79-.2-3.9779-.4-5.7679-.2-1.6906 0-3.4807.1-5.1713 2-.0995 4.1-.2983 6.1 0 .1 1.3923.2 2.7845.3 4.0774.1 1.1933.2 2.2872.2 3.4806 0 .9945.1 2.4862-.2 3.4807-.8 2.0884 3.1 1.8895 3.7.3978.7-1.8895.5-4.1768.4-6.1658-.2-2.4862-.6-4.8729-.6-7.2597ZM78.22 22.9729c-.9-2.7845-2.4-5.1713-3.6-7.7569 1-1.8895 2-3.8785 2.9-5.8674.8-1.7901 1.4-3.779 3.1-5.0719.6-.3978.6-.895-.3-.9945-.9-.0994-2.1.199-2.8.6962-1.4 1.2928-2.4 2.685-3.1 4.3757-.9 2.0884-1.9 4.0773-2.9 6.0663-.1.0994-.1.2983-.2.3978-.5.2983-.8.7956-.6 1.2928-.8 1.5912-1.6 3.0829-2.5 4.5746-.3-5.4696-1-11.0387-1.2-16.5083 0-1.2928-4-.4973-3.9.9944.2 6.8619 1.2 13.6244 1.3 20.4863v.0994c-.3.2984-.2.4973.1.5967 0 1.7901-.1 3.4807-.2 5.2707-.5.6962.5 1.094 1.1 1.094h.1c.7 0 2.6-.2984 2.7-1.3923.2-2.0884.3-4.1768.2-6.2652 1.6-1.6906 2.9-3.5801 4.1-5.5691.8 1.4917 1.5 2.9834 2 4.5746.9 2.6851 2.3 5.2707 3.1 7.9558.5 1.7901 4.5.6962 3.9-.9944-1-2.7846-2.4-5.2708-3.3-8.0553ZM101.721 18.3983c-.2-.7956-1.4-.7956-2.3003-.7956v-.9945c-.1-2.6851-.2-5.3702-.4-7.9558-.2-2.4862-1.6-3.2818-4-3.1823-2.4.0994-5.2.4972-7.5 1.3922-2.6.9945-4.1 2.884-4.6 5.6686-.5 2.9834.2 6.1657.4 9.1491.2 3.4807.1 6.9614.1 10.4421 0 .5966 3.9 0 3.9-.9945v-8.2542c0-.7956-.1-1.5911-.1-2.3867 1.4-.5967 3.7 0 5.1.0994 1.1.0995 2.2-.1989 3.2-.2983 0 2.2873.1 4.5746.2 6.8619 0 1.1933.5 3.4806-.4 4.4751-.4.4973 1.5.2984 1.6.2984.8-.0995 1.8-.3978 2.3-.9945.9003-1.0939.5-3.779.4-5.0718-.1-1.8896-.1-3.7791-.1-5.6686 1.1003-.1989 2.4003-.895 2.2003-1.79Zm-14.6003-.0995c-.1-1.1933-.2-2.4862-.3-3.6795-.2-2.2873.1-5.5691 2.3-6.9614.6-.3978 1.7-.2983 2.4-.3978 1-.1989 2-.3978 2.8.199 1.2.7955.9 3.6795.9 4.8729 0 1.9889.2 3.9779.3 5.9668-.6.0995-1.1.0995-1.7.0995-2.3-.1989-4.6-.5967-6.7-.0995ZM24.2204 6.663c.5-.0995 1-.1989 1.5-.4972l.2-.199c.5-.2983 1-.7955.7-1.3922-.5-1.094-.4-2.1879-.4-3.3812 0-.9945-1-1.1934-1.8-1.1934-.7.0994-2.2.5967-2.2 1.4917 0 .9945-.1 1.989.1 2.9835 0 .0994-.1.1988-.1.3977-.1.199 0 .3978.1.5967V5.8674c.1.199.2.3978.4.4973.6.2983 1.1.2983 1.5.2983Z" fill="#000"/></svg>