<svg width="101" height="77" viewBox="0 0 101 77" fill="none" xmlns="http://www.w3.org/2000/svg"><path d="M97.2852 18.1472s-.9035-7.0183-3.8151-10.1264c-3.6143-4.0104-7.7306-4.1106-9.5377-4.3112C70.5795 2.707 50.5 2.707 50.5 2.707h-.1004s-20.0796 0-33.4325 1.0026c-1.9075.2006-5.9234.3008-9.5377 4.3112-2.8112 3.1081-3.8151 10.1264-3.8151 10.1264s-.9036 8.2213-.9036 16.4427v7.72c0 8.2214.9036 16.4427.9036 16.4427s.9036 7.0182 3.815 10.1263c3.6144 4.0104 8.4335 3.9102 10.5418 4.3112 7.6302.8021 32.5289 1.0026 32.5289 1.0026s20.0795 0 33.4324-1.0026c1.9075-.2005 5.9234-.3008 9.5377-4.3112 2.8112-3.1081 3.8151-10.1263 3.8151-10.1263s.9036-8.2213.9036-16.4427v-7.72c0-8.2214-.9036-16.4427-.9036-16.4427Z" fill="#63D1BB"/><path d="M50.3996 77c-1.004 0-25.0994-.3008-32.7296-1.0026h-.2008c-.3012-.1003-.7028-.1002-1.1044-.2005-2.5099-.3008-7.2286-.9023-10.843-5.013-3.4134-3.6094-4.4174-10.8282-4.5178-11.6302C1.004 58.8529 0 50.6315 0 42.4102v-7.7201c0-8.3216.9036-16.4427.9036-16.7435v-.1003c.1004-.802 1.2048-7.9205 4.5179-11.6302C9.4374 1.8047 13.9553 1.3034 16.164 1.103c.2008 0 .4016 0 .502-.1003h.1004C30.1193 0 50.1988 0 50.3996 0H50.5c.2008 0 20.2803 0 33.6332 1.0026h.1004c.2008 0 .3012 0 .502.1003 2.2087.2005 6.7266.7018 10.7425 5.1132 3.4136 3.6094 4.4175 10.8282 4.5179 11.6302 0 .3008 1.004 8.5222 1.004 16.8438v7.7201c0 8.3216-.904 16.4427-1.004 16.7435v.1002c-.1004.8021-1.2047 8.0208-4.5179 11.6302-4.0159 4.4115-8.5338 4.9128-10.7425 5.1133-.2008 0-.4016 0-.502.1003h-.1004C70.7803 77 50.6004 77 50.3996 77Zm-32.0268-6.4167c7.5298.7019 31.324 1.0026 32.1272 1.0026.7028 0 20.1799 0 33.1312-1.0026.2008 0 .4016 0 .6024-.1002 1.8071-.2005 4.6183-.5013 7.2286-3.3086 1.8072-2.0052 2.9116-6.918 3.1124-8.6224.1004-.5013.9035-8.4219.9035-16.1419v-7.7201c0-7.8203-.9035-15.6406-1.0039-16.1419-.3012-2.4063-1.4056-6.8177-3.1124-8.5222-2.6103-2.9075-5.4214-3.108-7.2286-3.3086-.2008 0-.4016 0-.6024-.1002-13.1521-1.0026-32.9304-1.0026-33.1312-1.0026h-.1004c-.2008 0-20.0795 0-33.1312 1.0026-.2008 0-.4016 0-.6024.1002-1.8072.2006-4.6183.5014-7.2286 3.3086-1.8072 2.0053-2.9115 6.918-3.1123 8.6224-.1004.6016-.9036 8.4219-.9036 16.142v7.72c0 7.7201.9036 15.6407.9036 16.142.3012 2.4062 1.4055 6.8177 3.1123 8.5221 2.3091 2.6068 5.3211 3.0078 7.5298 3.3086.6024-.1003 1.004 0 1.506.1002Z" fill="#fff"/><path d="M38.4521 20.5535v35.7929l29.9185-17.8463-29.9185-17.9466Z" fill="#fff"/></svg>