<svg width="39" height="17" viewBox="0 0 39 17" fill="none" xmlns="http://www.w3.org/2000/svg"><g clip-path="url(#a)"><path d="M579 17c-6.042 0-9.197-3.4-11.748-6.1348-2.282-2.4391-3.96-4.213-7.518-4.213-3.625 0-5.237 1.7739-7.519 4.213C549.664 13.6 546.509 17 540.467 17c-6.042 0-9.197-3.4-11.748-6.1348-2.282-2.4391-3.96-4.213-7.518-4.213s-5.237 1.7739-7.519 4.213C511.131 13.6 507.976 17 501.934 17c-6.042 0-9.197-3.4-11.748-6.1348-2.282-2.4391-3.96-4.213-7.518-4.213-3.625 0-5.236 1.7739-7.519 4.213C472.598 13.6 469.443 17 463.401 17c-6.041 0-9.196-3.4-11.747-6.1348-2.283-2.4391-3.961-4.213-7.519-4.213-3.625 0-5.236 1.7739-7.519 4.213C433.797 13.6 430.642 17 424.6 17s-9.197-3.4-11.748-6.1348c-2.282-2.4391-3.961-4.213-7.518-4.213-3.626 0-5.237 1.7739-7.519 4.213C395.264 13.6 392.109 17 386.067 17c-6.042 0-9.197-3.4-11.748-6.1348-2.282-2.4391-3.96-4.213-7.518-4.213-3.625 0-5.236 1.7739-7.519 4.213C356.597 13.6 353.442 17 347.4 17s-9.197-3.4-11.748-6.1348c-2.282-2.4391-3.961-4.213-7.518-4.213-3.626 0-5.237 1.7739-7.519 4.213C318.064 13.6 314.909 17 308.867 17c-6.042 0-9.197-3.4-11.748-6.1348-2.282-2.4391-3.96-4.213-7.518-4.213s-5.236 1.7739-7.519 4.213C279.464 13.6 276.242 17 270.2 17s-9.197-3.4-11.748-6.1348c-2.282-2.4391-3.961-4.213-7.518-4.213-3.625 0-5.237 1.7739-7.519 4.213C240.864 13.6 237.709 17 231.667 17c-6.042 0-9.197-3.4-11.748-6.1348-2.282-2.4391-3.96-4.213-7.518-4.213-3.625 0-5.236 1.7739-7.519 4.213C202.331 13.6 199.176 17 193.134 17c-6.041 0-9.197-3.4-11.748-6.1348-2.282-2.4391-3.96-4.213-7.518-4.213s-5.236 1.7739-7.519 4.213C163.798 13.6 160.643 17 154.601 17c-6.041 0-9.196-3.4-11.747-6.1348-2.283-2.4391-3.961-4.213-7.519-4.213-3.625 0-5.236 1.7739-7.519 4.213C125.265 13.6 122.11 17 116.069 17c-6.042 0-9.197-3.4-11.748-6.1348-2.283-2.4391-3.961-4.213-7.5189-4.213-3.625 0-5.2362 1.7739-7.5186 4.213C86.7325 13.6 83.5774 17 77.5356 17c-6.0417 0-9.1968-3.4-11.7478-6.1348-2.2824-2.4391-3.9607-4.213-7.5186-4.213-3.625 0-5.2361 1.7739-7.5186 4.213C48.1997 13.6 45.0445 17 39.0028 17c-6.0418 0-9.1969-3.4-11.7478-6.1348-2.2825-2.4391-3.9607-4.213-7.5187-4.213-3.5579 0-5.2361 1.7739-7.5186 4.213C9.6667 13.6 6.5117 17 .4699 17c-6.0417 0-9.1968-3.4-11.7478-6.1348-2.2824-2.4391-3.9607-4.213-7.5186-4.213-3.6251 0-5.2362 1.7739-7.5186 4.213C-28.8661 13.6-32.0212 17-38.063 17c-6.0417 0-9.1968-3.4-11.7478-6.1348-2.2824-2.4391-3.9607-4.213-7.5186-4.213-3.625 0-5.2362 1.7739-7.5186 4.213C-67.399 13.6-70.5541 17-76.5958 17c-6.0418 0-9.1969-3.4-11.7479-6.1348-2.2824-2.4391-3.9607-4.213-7.5186-4.213-3.625 0-5.2357 1.7739-7.5187 4.213C-106.536 13.6-109.758 17-115.8 17c-6.042 0-9.197-3.4-11.748-6.1348-2.282-2.4391-3.961-4.213-7.518-4.213-3.625 0-5.237 1.7739-7.519 4.213C-145.136 13.6-148.291 17-154.333 17c-6.042 0-9.197-3.4-11.748-6.1348-2.349-2.4391-4.028-4.213-7.585-4.213-3.625 0-5.237 1.7739-7.519 4.213C-183.803 13.6-186.958 17-193 17v-6.6522c3.625 0 5.236-1.7739 7.519-4.213C-182.93 3.4-179.775 0-173.666 0c6.041 0 9.196 3.4 11.747 6.1348 2.283 2.4391 3.961 4.213 7.519 4.213 3.625 0 5.236-1.7739 7.519-4.213C-144.33 3.4-141.108 0-135.066 0c6.041 0 9.196 3.4 11.747 6.1348 2.283 2.4391 3.961 4.213 7.519 4.213 3.625 0 5.236-1.7739 7.519-4.213C-105.73 3.4-102.575 0-96.5336 0c6.0418 0 9.1969 3.4 11.7479 6.1348 2.2824 2.4391 3.9606 4.213 7.5186 4.213 3.625 0 5.2361-1.7739 7.5186-4.213C-67.1976 3.4-64.0424 0-58.0007 0s9.1969 3.4 11.7478 6.1348c2.2825 2.4391 3.9607 4.213 7.5186 4.213 3.6251 0 5.2362-1.7739 7.5186-4.213C-28.6647 3.4-25.5096 0-19.4678 0-13.4261 0-10.271 3.4-7.72 6.1348c2.2824 2.4391 3.9607 4.213 7.5186 4.213 3.625 0 5.2362-1.7739 7.5186-4.213C9.8682 3.4 13.0233 0 19.065 0c6.0418 0 9.1969 3.4 11.7479 6.1348 2.2824 2.4391 3.9607 4.213 7.5186 4.213 3.625 0 5.2361-1.7739 7.5186-4.213C48.401 3.4 51.5562 0 57.5979 0s9.1969 3.4 11.7478 6.1348c2.2825 2.4391 3.9607 4.213 7.5186 4.213 3.558 0 5.2362-1.7739 7.5187-4.213C86.9339 3.4 90.0891 0 96.1308 0c6.0422 0 9.1972 3.4 11.7482 6.1348 2.282 2.4391 3.96 4.213 7.518 4.213 3.625 0 5.236-1.7739 7.519-4.213C125.467 3.4 128.622 0 134.664 0c6.041 0 9.197 3.4 11.747 6.1348 2.283 2.4391 3.961 4.213 7.519 4.213 3.625 0 5.236-1.7739 7.519-4.213C164 3.4 167.155 0 173.197 0c6.041 0 9.196 3.4 11.747 6.1348 2.283 2.4391 3.961 4.213 7.519 4.213 3.625 0 5.236-1.7739 7.519-4.213C202.533 3.4 205.688 0 211.729 0c6.042 0 9.197 3.4 11.748 6.1348 2.283 2.4391 3.961 4.213 7.519 4.213 3.625 0 5.236-1.7739 7.518-4.213C241.065 3.4 244.221 0 250.262 0c6.042 0 9.197 3.4 11.748 6.1348 2.283 2.4391 3.961 4.213 7.519 4.213 3.625 0 5.236-1.7739 7.518-4.213C279.598 3.4 282.753 0 288.795 0c6.042 0 9.197 3.4 11.748 6.1348 2.282 2.4391 3.961 4.213 7.519 4.213 3.625 0 5.236-1.7739 7.518-4.213C318.131 3.4 321.286 0 327.328 0c6.042 0 9.197 3.4 11.748 6.1348 2.282 2.4391 3.96 4.213 7.518 4.213 3.625 0 5.237-1.7739 7.519-4.213C357.47 3.4 360.625 0 366.734 0c6.041 0 9.196 3.4 11.747 6.1348 2.283 2.4391 3.961 4.213 7.519 4.213 3.558 0 5.236-1.7739 7.519-4.213C396.07 3.4 399.225 0 405.266 0c6.042 0 9.197 3.4 11.748 6.1348 2.283 2.4391 3.961 4.213 7.519 4.213 3.558 0 5.236-1.7739 7.518-4.213C434.67 3.4 437.825 0 443.934 0c6.108 0 9.196 3.4 11.747 6.1348 2.283 2.4391 3.961 4.213 7.519 4.213 3.558 0 5.236-1.7739 7.519-4.213C473.27 3.4 476.425 0 482.466 0c6.042 0 9.197 3.4 11.748 6.1348 2.283 2.4391 3.961 4.213 7.519 4.213 3.625 0 5.236-1.7739 7.518-4.213C511.802 3.4 514.958 0 520.999 0c6.042 0 9.197 3.4 11.748 6.1348 2.283 2.4391 3.961 4.213 7.519 4.213 3.558 0 5.236-1.7739 7.518-4.213C550.335 3.4 553.49 0 559.532 0c6.042 0 9.197 3.4 11.748 6.1348 2.282 2.4391 3.961 4.213 7.519 4.213V17H579Z" fill="#F1F1F1"/></g><defs><clipPath id="a"><path fill="#fff" d="M0 0h39v17H0z"/></clipPath></defs></svg>