<svg width="16" height="6" viewBox="0 0 16 6" fill="none" xmlns="http://www.w3.org/2000/svg"><g clip-path="url(#a)"><path d="M240 6c-2.504 0-3.812-1.2-4.87-2.1652-.946-.8609-1.641-1.487-3.116-1.487-1.503 0-2.171.6261-3.117 1.487C227.84 4.8 226.532 6 224.028 6c-2.505 0-3.812-1.2-4.87-2.1652-.946-.8609-1.641-1.487-3.116-1.487s-2.171.6261-3.117 1.487C211.868 4.8 210.56 6 208.056 6c-2.505 0-3.813-1.2-4.87-2.1652-.946-.8609-1.642-1.487-3.116-1.487-1.503 0-2.171.6261-3.117 1.487C195.896 4.8 194.588 6 192.083 6c-2.504 0-3.812-1.2-4.869-2.1652-.946-.8609-1.642-1.487-3.117-1.487-1.502 0-2.17.6261-3.116 1.487C179.812 4.8 178.504 6 176 6s-3.812-1.2-4.87-2.1652c-.946-.8609-1.641-1.487-3.116-1.487-1.503 0-2.171.6261-3.117 1.487C163.84 4.8 162.532 6 160.028 6c-2.505 0-3.812-1.2-4.87-2.1652-.946-.8609-1.641-1.487-3.116-1.487-1.503 0-2.171.6261-3.117 1.487C147.812 4.8 146.504 6 144 6s-3.812-1.2-4.87-2.1652c-.946-.8609-1.641-1.487-3.116-1.487-1.503 0-2.171.6261-3.117 1.487C131.84 4.8 130.532 6 128.028 6c-2.505 0-3.812-1.2-4.87-2.1652-.946-.8609-1.641-1.487-3.116-1.487s-2.171.6261-3.117 1.487C115.84 4.8 114.504 6 112 6s-3.812-1.2-4.87-2.1652c-.946-.8609-1.641-1.487-3.116-1.487-1.503 0-2.171.6261-3.117 1.487C99.84 4.8 98.5322 6 96.0278 6c-2.5043 0-3.8122-1.2-4.8696-2.1652-.946-.8609-1.6417-1.487-3.1165-1.487-1.5026 0-2.1704.6261-3.1165 1.487C83.8678 4.8 82.56 6 80.0556 6c-2.5043 0-3.8121-1.2-4.8695-2.1652-.9461-.8609-1.6418-1.487-3.1165-1.487-1.4748 0-2.1705.6261-3.1166 1.487C67.8956 4.8 66.5878 6 64.0835 6c-2.5044 0-3.8122-1.2-4.8696-2.1652-.9461-.8609-1.6417-1.487-3.1165-1.487-1.5026 0-2.1705.6261-3.1165 1.487C51.9235 4.8 50.6156 6 48.1113 6c-2.5044 0-3.8122-1.2-4.8696-2.1652-.9461-.8609-1.6417-1.487-3.1165-1.487-1.5026 0-2.1704.6261-3.1165 1.487C35.9513 4.8 34.6435 6 32.1391 6c-2.5043 0-3.8121-1.2-4.8695-2.1652-.9461-.8609-1.6418-1.487-3.1166-1.487-1.5026 0-2.1704.6261-3.1165 1.487C19.9791 4.8 18.6713 6 16.167 6c-2.5044 0-3.8122-1.2-4.8696-2.1652-.9461-.8609-1.6418-1.487-3.1165-1.487-1.4748 0-2.1705.6261-3.1165 1.487C4.007 4.8 2.699 6 .1947 6c-2.5044 0-3.8122-1.2-4.8696-2.1652-.946-.8609-1.6417-1.487-3.1165-1.487-1.5026 0-2.1704.6261-3.1165 1.487C-11.9652 4.8-13.273 6-15.7774 6c-2.5043 0-3.8122-1.2-4.8696-2.1652-.946-.8609-1.6417-1.487-3.1165-1.487-1.5026 0-2.1704.6261-3.1165 1.487C-27.9374 4.8-29.2452 6-31.7496 6c-2.5043 0-3.8121-1.2-4.8695-2.1652-.9461-.8609-1.6418-1.487-3.1166-1.487-1.5026 0-2.1704.6261-3.1165 1.487C-44.16 4.8-45.4957 6-48 6s-3.8122-1.2-4.8696-2.1652c-.9461-.8609-1.6417-1.487-3.1165-1.487-1.5026 0-2.1704.6261-3.1165 1.487C-60.16 4.8-61.4678 6-63.9722 6c-2.5043 0-3.8121-1.2-4.8695-2.1652-.974-.8609-1.6696-1.487-3.1444-1.487-1.5026 0-2.1704.6261-3.1165 1.487C-76.1878 4.8-77.4957 6-80 6V3.6522c1.5026 0 2.1704-.6261 3.1165-1.487C-75.8261 1.2-74.5183 0-71.9861 0c2.5044 0 3.8122 1.2 4.8696 2.1652.9461.8609 1.6417 1.487 3.1165 1.487 1.5026 0 2.1704-.6261 3.1165-1.487C-59.8261 1.2-58.4904 0-55.9861 0c2.5044 0 3.8122 1.2 4.8696 2.1652.9461.8609 1.6417 1.487 3.1165 1.487 1.5026 0 2.1704-.6261 3.1165-1.487C-43.8261 1.2-42.5183 0-40.0139 0c2.5043 0 3.8122 1.2 4.8695 2.1652.9461.8609 1.6418 1.487 3.1166 1.487 1.5026 0 2.1704-.6261 3.1165-1.487C-27.8539 1.2-26.5461 0-24.0417 0c2.5043 0 3.8121 1.2 4.8695 2.1652.9461.8609 1.6418 1.487 3.1165 1.487 1.5027 0 2.1705-.6261 3.1166-1.487C-11.8817 1.2-10.5739 0-8.0696 0-5.5652 0-4.2574 1.2-3.2 2.1652c.946.8609 1.6417 1.487 3.1165 1.487 1.5026 0 2.1704-.6261 3.1165-1.487C4.0904 1.2 5.3983 0 7.9026 0c2.5044 0 3.8122 1.2 4.8696 2.1652.9461.8609 1.6417 1.487 3.1165 1.487 1.5026 0 2.1704-.6261 3.1165-1.487C20.0626 1.2 21.3704 0 23.8748 0c2.5043 0 3.8121 1.2 4.8695 2.1652.9461.8609 1.6418 1.487 3.1166 1.487 1.4747 0 2.1704-.6261 3.1165-1.487C36.0348 1.2 37.3426 0 39.847 0c2.5043 0 3.8121 1.2 4.8695 2.1652.9461.8609 1.6418 1.487 3.1165 1.487 1.5026 0 2.1705-.6261 3.1166-1.487C52.007 1.2 53.3148 0 55.8191 0c2.5044 0 3.8122 1.2 4.8696 2.1652.9461.8609 1.6417 1.487 3.1165 1.487 1.5026 0 2.1704-.6261 3.1165-1.487C67.9791 1.2 69.2869 0 71.7913 0c2.5043 0 3.8122 1.2 4.8696 2.1652.946.8609 1.6417 1.487 3.1165 1.487 1.5026 0 2.1704-.6261 3.1165-1.487C83.9513 1.2 85.2591 0 87.7635 0c2.5043 0 3.8122 1.2 4.8695 2.1652.9461.8609 1.6418 1.487 3.1166 1.487 1.5026 0 2.1704-.6261 3.1165-1.487C99.9235 1.2 101.231 0 103.736 0c2.504 0 3.812 1.2 4.869 2.1652.946.8609 1.642 1.487 3.117 1.487 1.502 0 2.17-.6261 3.116-1.487C115.896 1.2 117.203 0 119.708 0c2.504 0 3.812 1.2 4.869 2.1652.946.8609 1.642 1.487 3.117 1.487 1.503 0 2.17-.6261 3.116-1.487C131.868 1.2 133.176 0 135.68 0s3.812 1.2 4.87 2.1652c.946.8609 1.641 1.487 3.116 1.487 1.503 0 2.171-.6261 3.117-1.487C148.174 1.2 149.482 0 152.014 0c2.504 0 3.812 1.2 4.869 2.1652.947.8609 1.642 1.487 3.117 1.487s2.17-.6261 3.117-1.487C164.174 1.2 165.482 0 167.986 0c2.504 0 3.812 1.2 4.87 2.1652.946.8609 1.641 1.487 3.116 1.487s2.171-.6261 3.117-1.487C180.174 1.2 181.482 0 184.014 0s3.812 1.2 4.869 2.1652c.947.8609 1.642 1.487 3.117 1.487s2.17-.6261 3.117-1.487C196.174 1.2 197.482 0 199.986 0c2.504 0 3.812 1.2 4.87 2.1652.946.8609 1.641 1.487 3.116 1.487 1.503 0 2.171-.6261 3.117-1.487C212.146 1.2 213.454 0 215.958 0c2.505 0 3.812 1.2 4.87 2.1652.946.8609 1.642 1.487 3.116 1.487 1.475 0 2.171-.6261 3.117-1.487C228.118 1.2 229.426 0 231.93 0c2.505 0 3.813 1.2 4.87 2.1652.946.8609 1.642 1.487 3.116 1.487V6H240Z" fill="#F1F1F1"/></g><defs><clipPath id="a"><path fill="#fff" d="M0 0h16v6H0z"/></clipPath></defs></svg>