<svg width="35" height="34" fill="none" xmlns="http://www.w3.org/2000/svg"><path d="M.306 13.953a16.04 16.04 0 0 0 0 6.232l4.176-3.165-4.176-3.067ZM24.852 1.586C19.963-.59 14.259-.59 9.269 1.982l7.638 5.54 7.945-5.936Zm9.676 11.476-4.889 3.66 4.99 3.66c.51-2.373.51-4.946-.101-7.32ZM9.371 32.057c4.888 2.473 10.898 2.671 15.99.099l-8.25-6.035-7.74 5.936ZM8.046 14.249 1.732 9.698c-.306.693-.612 1.385-.815 2.078l5.398 3.957 1.731-1.484Zm10.899 10.586 8.453 6.134c.306-.198.611-.396.815-.594.306-.198.611-.495.917-.791l-8.454-6.134-1.731 1.385ZM11.61 11.578 4.074 6.137c-.51.494-.917 1.088-1.324 1.682l7.028 5.144 1.833-1.385ZM22.51 22.163l8.25 6.035c.51-.494.917-1.088 1.325-1.682l-7.843-5.738-1.732 1.386ZM15.176 8.907 7.333 3.169c-.203.099-.407.297-.61.396-.408.297-.815.593-1.121.989l7.843 5.64 1.731-1.287Zm10.898 10.487 7.13 5.144c.305-.693.611-1.286.917-1.979l-6.213-4.55-1.834 1.385Zm.815-16.72L.917 22.362c.203.692.509 1.385.814 2.077L28.722 3.96c-.509-.494-1.12-.89-1.833-1.286Zm4.38 3.858c-.306-.395-.611-.791-.917-1.088L2.852 26.22c.204.494.51.89.815 1.187.102.198.305.396.407.494L31.778 7.127c-.204-.198-.305-.396-.51-.594Zm1.63 2.375L5.703 29.484c.509.495 1.12.99 1.731 1.385l26.482-19.984c-.305-.692-.611-1.385-1.018-1.978Z" fill="#63D1BB"/></svg>